<svg xmlns="http://www.w3.org/2000/svg" viewBox="0 0 512 512" style="height: 514px; width: 514px;"><defs><filter id="shadow-1" height="300%" width="300%" x="-100%" y="-100%"><feFlood flood-color="rgba(255, 215, 0, 1)" result="flood"></feFlood><feComposite in="flood" in2="SourceGraphic" operator="atop" result="composite"></feComposite><feGaussianBlur in="composite" stdDeviation="23" result="blur"></feGaussianBlur><feOffset result="offset"></feOffset><feComposite in="SourceGraphic" in2="offset" operator="over"></feComposite></filter><radialGradient id="delapouite-bolt-bomb-gradient-0"><stop offset="0%" stop-color="#f8e71c" stop-opacity="1"></stop><stop offset="100%" stop-color="#f0f0f0" stop-opacity="1"></stop></radialGradient><pattern><pattern id="pattern" patternUnits="userSpaceOnUse" width="48" height="27.712812921102035"><path d="M 16,0 l 16,0 l 8,13.856406460551018 l -8,13.856406460551018 l -16,0 l -8,-13.856406460551018 Z M 0,13.856406460551018 l 8,0 M 48,13.856406460551018 l -8,0" stroke-width="2" shape-rendering="auto" stroke="#7851a9" stroke-linecap="square" fill="transparent"></path></pattern></pattern></defs><circle cx="256" cy="256" r="159" fill="url(#pattern)" stroke="#060501" stroke-opacity="1" stroke-width="97"></circle><g class="" transform="translate(-30,-26)" style=""><path d="M104.8 26.28c-16.71 0-32.64 5.9-45.86 15.4C25.09 65.78 8.537 116.5 40.26 159.6c24.97 34 14.15 78.4-11.69 103.4l12.84 13.4c31.97-30.9 45.09-85.6 14-127.9-25.94-35.2-12.44-72.72 14.03-91.72 13.24-9.4 29.77-13.7 46.16-10.5 15.6 3.1 31.6 13.2 46 34.6l-59.1 34.22 24.1 41.9c-49.4 63.4-58.45 153.1-15.9 227.1 56 97.2 179.9 130.5 276.8 74.4 96.9-56.1 130-180.4 74-277.6C419 107 337.3 69.98 258 81.08l-24.2-42-56 32.5c-16.8-25.4-37.5-39.8-58.7-44-4.8-.9-9.6-1.3-14.3-1.3zM288 112l-16 144 128-16-160 208 64-160-112 32 96-208z" fill="#800020" fill-opacity="1" filter="url(#shadow-1)" stroke="#7851a9" stroke-opacity="1" stroke-width="1"></path></g></svg>